# Exported from ProBuilder
# http://www.procore3d.com/probuilder
# 1/25/2020 11:52:53 AM

mtllib ./Statuslightcubeconnector.mtl
o Statuslightcubeconnector

g Cube
v -0.0614 0.0002 0.065969
v -0.08475234 0.0002 0.065969
v -0.0614 0.009616812 0.065969
v -0.08475234 0.009616812 0.065969
v -0.08475234 0.0002 0.065969
v -0.08475234 0.0002 0.04457019
v -0.08475234 0.009616812 0.065969
v -0.08475234 0.009616812 0.04457019
v -0.08475234 0.0002 0.04457019
v -0.0614 0.0002 0.04457019
v -0.08475234 0.009616812 0.04457019
v -0.0614 0.009616812 0.04457019
v -0.0614 0.0002 0.04457019
v -0.0614 0.0002 0.065969
v -0.0614 0.009616812 0.04457019
v -0.0614 0.009616812 0.065969
v -0.0614 0.009616812 0.065969
v -0.08475234 0.009616812 0.065969
v -0.0614 0.009616812 0.04457019
v -0.08475234 0.009616812 0.04457019
v -0.0614 0.0002 0.04457019
v -0.08475234 0.0002 0.04457019
v -0.0614 0.0002 0.065969
v -0.08475234 0.0002 0.065969

vn 0 0 0.02139881
vn 0 0 0.02139881
vn 0 0 0.02139881
vn 0 0 0.02139881
vn -0.02335233 0 0
vn -0.02335233 0 0
vn -0.02335233 0 0
vn -0.02335233 0 0
vn 0 0 -0.02139881
vn 0 0 -0.02139881
vn 0 0 -0.02139881
vn 0 0 -0.02139881
vn 0.02335233 0 0
vn 0.02335233 0 0
vn 0.02335233 0 0
vn 0.02335233 0 0
vn 0 0.009416812 0
vn 0 0.009416812 0
vn 0 0.009416812 0
vn 0 0.009416812 0
vn 0 -0.009416812 0
vn 0 -0.009416812 0
vn 0 -0.009416812 0
vn 0 -0.009416812 0

vt 0 0
vt -1 0
vt 0 1
vt -1 1
vt 0 0
vt -1 0
vt 0 1
vt -1 1
vt 1 0
vt 0 0
vt 1 1
vt 0 1
vt 1 0
vt 0 0
vt 1 1
vt 0 1
vt 0 0
vt 1 0
vt 0 -1
vt 1 -1
vt 0 -1
vt -1 -1
vt 0 0
vt -1 0

g Cube
usemtl Default_Prototype
f 3/3/3 4/4/4 2/2/2 1/1/1
f 7/7/7 8/8/8 6/6/6 5/5/5
f 11/11/11 12/12/12 10/10/10 9/9/9
f 15/15/15 16/16/16 14/14/14 13/13/13
f 19/19/19 20/20/20 18/18/18 17/17/17
f 23/23/23 24/24/24 22/22/22 21/21/21

