# Exported from ProBuilder
# http://www.procore3d.com/probuilder
# 1/25/2020 11:53:11 AM

mtllib ./StatusLightSide.mtl
o StatusLightSide

g StatusLightSide
v -0.0594056 0.00292 0.09200812
v -0.06930481 0.00292 0.09777452
v -0.08099508 0.00292 0.0978353
v -0.09112521 0.00292 0.09204239
v -0.09678984 0.00292 0.08206584
v -0.09692667 0.00292 0.07016166
v -0.09104301 0.00292 0.06003626
v -0.08160175 0.00292 0.05442625
v -0.06942391 0.00292 0.05415259
v -0.05916169 0.00292 0.0597626
v -0.05355167 0.00292 0.07002483
v -0.05341484 0.00292 0.08206584
v -0.05341484 0.005661054 0.08206584
v -0.05355167 0.005661054 0.07002483
v -0.0594056 0.005661054 0.09200812
v -0.09678984 0.005661054 0.08206584
v -0.08160175 0.005661054 0.05442625
v -0.06942391 0.005661054 0.05415259
v -0.05916169 0.005661054 0.0597626
v -0.09104301 0.005661054 0.06003626
v -0.09692667 0.005661054 0.07016166
v -0.06930481 0.005661054 0.09777452
v -0.08099508 0.005661054 0.0978353
v -0.09112521 0.005661054 0.09204239
v -0.08099508 0.00292 0.0978353
v -0.09112521 0.00292 0.09204239
v -0.08099508 0.005661054 0.0978353
v -0.09112521 0.005661054 0.09204239
v -0.09112521 0.00292 0.09204239
v -0.09678984 0.00292 0.08206584
v -0.09112521 0.005661054 0.09204239
v -0.09678984 0.005661054 0.08206584
v -0.06930481 0.00292 0.09777452
v -0.08099508 0.00292 0.0978353
v -0.06930481 0.005661054 0.09777452
v -0.08099508 0.005661054 0.0978353
v -0.0594056 0.00292 0.09200812
v -0.06930481 0.00292 0.09777452
v -0.0594056 0.005661054 0.09200812
v -0.06930481 0.005661054 0.09777452
v -0.09692667 0.00292 0.07016166
v -0.09104301 0.00292 0.06003626
v -0.09692667 0.005661054 0.07016166
v -0.09104301 0.005661054 0.06003626
v -0.09678984 0.00292 0.08206584
v -0.09692667 0.00292 0.07016166
v -0.09678984 0.005661054 0.08206584
v -0.09692667 0.005661054 0.07016166
v -0.09104301 0.00292 0.06003626
v -0.08160175 0.00292 0.05442625
v -0.09104301 0.005661054 0.06003626
v -0.08160175 0.005661054 0.05442625
v -0.05916169 0.00292 0.0597626
v -0.05355167 0.00292 0.07002483
v -0.05916169 0.005661054 0.0597626
v -0.05355167 0.005661054 0.07002483
v -0.06942391 0.00292 0.05415259
v -0.05916169 0.00292 0.0597626
v -0.06942391 0.005661054 0.05415259
v -0.05916169 0.005661054 0.0597626
v -0.08160175 0.00292 0.05442625
v -0.06942391 0.00292 0.05415259
v -0.08160175 0.005661054 0.05442625
v -0.06942391 0.005661054 0.05415259
v -0.05355167 0.00292 0.07002483
v -0.05341484 0.00292 0.08206584
v -0.05355167 0.005661054 0.07002483
v -0.05341484 0.005661054 0.08206584
v -0.05341484 0.00292 0.08206584
v -0.0594056 0.00292 0.09200812
v -0.05341484 0.005661054 0.08206584
v -0.0594056 0.005661054 0.09200812

vn 0 -1 0
vn 0 -1 0
vn 0 -1 0
vn 0 -1 0
vn 0 -1 0
vn 0 -1 0
vn 0 -1 0
vn 0 -1 0
vn 0 -1 0
vn 0 -1 0
vn 0 -1 0
vn 0 -1 0
vn 0 1 0
vn 0 1 0
vn 0 1 0
vn 0 1 0
vn 0 1 0
vn 0 0.9999999 0
vn 0 1 0
vn 0 1 0
vn 0 1 0
vn 0 1 0
vn 0 1 0
vn 0 1 0
vn -0.4964148 0 0.8680855
vn -0.4964148 0 0.8680855
vn -0.4964148 0 0.8680855
vn -0.4964148 0 0.8680855
vn -0.8696011 0 0.4937548
vn -0.8696011 0 0.4937548
vn -0.8696011 0 0.4937548
vn -0.8696011 0 0.4937548
vn 0.005199281 0 0.9999865
vn 0.005199281 0 0.9999865
vn 0.005199281 0 0.9999865
vn 0.005199281 0 0.9999865
vn 0.5033408 0 0.864088
vn 0.5033408 0 0.864088
vn 0.5033408 0 0.864088
vn 0.5033408 0 0.864088
vn -0.8646257 0 -0.5024166
vn -0.8646257 0 -0.5024166
vn -0.8646257 0 -0.5024166
vn -0.8646257 0 -0.5024166
vn -0.9999339 0 0.01149352
vn -0.9999339 0 0.01149352
vn -0.9999339 0 0.01149352
vn -0.9999339 0 0.01149352
vn -0.5108262 0 -0.8596841
vn -0.5108262 0 -0.8596841
vn -0.5108262 0 -0.8596841
vn -0.5108262 0 -0.8596841
vn 0.8774483 0 -0.4796713
vn 0.8774483 0 -0.4796713
vn 0.8774483 0 -0.4796713
vn 0.8774483 0 -0.4796713
vn 0.4796714 0 -0.8774482
vn 0.4796714 0 -0.8774482
vn 0.4796714 0 -0.8774482
vn 0.4796714 0 -0.8774482
vn -0.02246628 0 -0.9997476
vn -0.02246628 0 -0.9997476
vn -0.02246628 0 -0.9997476
vn -0.02246628 0 -0.9997476
vn 0.9999354 0 -0.01136292
vn 0.9999354 0 -0.01136292
vn 0.9999354 0 -0.01136292
vn 0.9999354 0 -0.01136292
vn 0.8565267 0 0.5161028
vn 0.8565267 0 0.5161028
vn 0.8565267 0 0.5161028
vn 0.8565267 0 0.5161028

vt 0.003694404 0.02640812
vt -0.006204806 0.03217452
vt -0.01789508 0.0322353
vt -0.02802521 0.02644239
vt -0.03368984 0.01646584
vt -0.03382667 0.004561655
vt -0.02794301 -0.00556374
vt -0.01850175 -0.01117375
vt -0.006323911 -0.01144741
vt 0.003938317 -0.0058374
vt 0.009548329 0.004424825
vt 0.009685159 0.01646584
vt -0.009685159 0.01646584
vt -0.009548329 0.004424825
vt -0.003694404 0.02640812
vt 0.03368984 0.01646584
vt 0.01850175 -0.01117375
vt 0.006323911 -0.01144741
vt -0.003938317 -0.0058374
vt 0.02794301 -0.00556374
vt 0.03382667 0.004561655
vt 0.006204806 0.03217452
vt 0.01789508 0.0322353
vt 0.02802521 0.02644239
vt 0.0004676198 0
vt -0.01120189 0
vt 0.0004676198 0.002741053
vt -0.01120189 0.002741053
vt 0.009156747 0
vt -0.002315813 0
vt 0.009156747 0.002741053
vt -0.002315813 0.002741053
vt -0.006372007 0
vt -0.01806244 0
vt -0.006372007 0.002741053
vt -0.01806244 0.002741053
vt -0.01009999 0
vt -0.02155625 0
vt -0.01009999 0.002741053
vt -0.02155625 0.002741053
vt 0.02093921 0
vt 0.009228479 0
vt 0.02093921 0.002741053
vt 0.009228479 0.002741053
vt 0.01607753 0
vt 0.004172566 0
vt 0.01607753 0.002741053
vt 0.004172566 0.002741053
vt 0.02118005 0
vt 0.01019781 0
vt 0.02118005 0.002741053
vt 0.01019781 0.002741053
vt 0.003232918 0
vt -0.008462615 0
vt 0.003232918 0.002741053
vt -0.008462615 0.002741053
vt 0.0110399 0
vt -0.0006556356 0
vt 0.0110399 0.002741053
vt -0.0006556356 0.002741053
vt 0.01824605 0
vt 0.006065134 0
vt 0.01824605 0.002741053
vt 0.006065134 0.002741053
vt -0.004533037 0
vt -0.01657482 0
vt -0.004533037 0.002741053
vt -0.01657482 0.002741053
vt -0.00910489 0
vt -0.02071257 0
vt -0.00910489 0.002741053
vt -0.02071257 0.002741053

g StatusLightSide_0
usemtl Default_Prototype
f 27/27/27 28/28/28 26/26/26 25/25/25
f 31/31/31 32/32/32 30/30/30 29/29/29
f 35/35/35 36/36/36 34/34/34 33/33/33
f 39/39/39 40/40/40 38/38/38 37/37/37
f 43/43/43 44/44/44 42/42/42 41/41/41
f 47/47/47 48/48/48 46/46/46 45/45/45
f 51/51/51 52/52/52 50/50/50 49/49/49
f 55/55/55 56/56/56 54/54/54 53/53/53
f 59/59/59 60/60/60 58/58/58 57/57/57
f 63/63/63 64/64/64 62/62/62 61/61/61
f 67/67/67 68/68/68 66/66/66 65/65/65
f 71/71/71 72/72/72 70/70/70 69/69/69

g StatusLightSide_1
usemtl Default_Prototype
f 1/1/1 11/11/11 12/12/12
f 5/5/5 11/11/11 1/1/1
f 11/11/11 5/5/5 8/8/8
f 9/9/9 11/11/11 8/8/8
f 10/10/10 11/11/11 9/9/9
f 5/5/5 7/7/7 8/8/8
f 6/6/6 7/7/7 5/5/5
f 1/1/1 2/2/2 5/5/5
f 2/2/2 3/3/3 5/5/5
f 5/5/5 3/3/3 4/4/4
f 24/24/24 23/23/23 16/16/16
f 16/16/16 23/23/23 22/22/22
f 16/16/16 22/22/22 15/15/15
f 16/16/16 20/20/20 21/21/21
f 17/17/17 20/20/20 16/16/16
f 18/18/18 14/14/14 19/19/19
f 17/17/17 14/14/14 18/18/18
f 17/17/17 16/16/16 14/14/14
f 15/15/15 14/14/14 16/16/16
f 13/13/13 14/14/14 15/15/15

